%TF.GenerationSoftware,KiCad,Pcbnew,10.0.0*%
%TF.CreationDate,2026-05-11T19:40:16+02:00*%
%TF.ProjectId,DummyLED,44756d6d-794c-4454-942e-6b696361645f,rev?*%
%TF.SameCoordinates,Original*%
%TF.FileFunction,Legend,Top*%
%TF.FilePolarity,Positive*%
%FSLAX46Y46*%
G04 Gerber Fmt 4.6, Leading zero omitted, Abs format (unit mm)*
G04 Created by KiCad (PCBNEW 10.0.0) date 2026-05-11 19:40:16*
%MOMM*%
%LPD*%
G01*
G04 APERTURE LIST*
%ADD10C,0.200000*%
%ADD11C,0.150000*%
%ADD12C,0.120000*%
G04 APERTURE END LIST*
D10*
X114143482Y-72664838D02*
X114048244Y-72617219D01*
X114048244Y-72617219D02*
X113905387Y-72617219D01*
X113905387Y-72617219D02*
X113762530Y-72664838D01*
X113762530Y-72664838D02*
X113667292Y-72760076D01*
X113667292Y-72760076D02*
X113619673Y-72855314D01*
X113619673Y-72855314D02*
X113572054Y-73045790D01*
X113572054Y-73045790D02*
X113572054Y-73188647D01*
X113572054Y-73188647D02*
X113619673Y-73379123D01*
X113619673Y-73379123D02*
X113667292Y-73474361D01*
X113667292Y-73474361D02*
X113762530Y-73569600D01*
X113762530Y-73569600D02*
X113905387Y-73617219D01*
X113905387Y-73617219D02*
X114000625Y-73617219D01*
X114000625Y-73617219D02*
X114143482Y-73569600D01*
X114143482Y-73569600D02*
X114191101Y-73521980D01*
X114191101Y-73521980D02*
X114191101Y-73188647D01*
X114191101Y-73188647D02*
X114000625Y-73188647D01*
X114619673Y-73617219D02*
X114619673Y-72617219D01*
X114619673Y-72617219D02*
X115191101Y-73617219D01*
X115191101Y-73617219D02*
X115191101Y-72617219D01*
X115667292Y-73617219D02*
X115667292Y-72617219D01*
X115667292Y-72617219D02*
X115905387Y-72617219D01*
X115905387Y-72617219D02*
X116048244Y-72664838D01*
X116048244Y-72664838D02*
X116143482Y-72760076D01*
X116143482Y-72760076D02*
X116191101Y-72855314D01*
X116191101Y-72855314D02*
X116238720Y-73045790D01*
X116238720Y-73045790D02*
X116238720Y-73188647D01*
X116238720Y-73188647D02*
X116191101Y-73379123D01*
X116191101Y-73379123D02*
X116143482Y-73474361D01*
X116143482Y-73474361D02*
X116048244Y-73569600D01*
X116048244Y-73569600D02*
X115905387Y-73617219D01*
X115905387Y-73617219D02*
X115667292Y-73617219D01*
X114345863Y-79617219D02*
X113869673Y-79617219D01*
X113869673Y-79617219D02*
X113822054Y-80093409D01*
X113822054Y-80093409D02*
X113869673Y-80045790D01*
X113869673Y-80045790D02*
X113964911Y-79998171D01*
X113964911Y-79998171D02*
X114203006Y-79998171D01*
X114203006Y-79998171D02*
X114298244Y-80045790D01*
X114298244Y-80045790D02*
X114345863Y-80093409D01*
X114345863Y-80093409D02*
X114393482Y-80188647D01*
X114393482Y-80188647D02*
X114393482Y-80426742D01*
X114393482Y-80426742D02*
X114345863Y-80521980D01*
X114345863Y-80521980D02*
X114298244Y-80569600D01*
X114298244Y-80569600D02*
X114203006Y-80617219D01*
X114203006Y-80617219D02*
X113964911Y-80617219D01*
X113964911Y-80617219D02*
X113869673Y-80569600D01*
X113869673Y-80569600D02*
X113822054Y-80521980D01*
X114679197Y-79617219D02*
X115012530Y-80617219D01*
X115012530Y-80617219D02*
X115345863Y-79617219D01*
D11*
X117087142Y-67994819D02*
X116753809Y-67518628D01*
X116515714Y-67994819D02*
X116515714Y-66994819D01*
X116515714Y-66994819D02*
X116896666Y-66994819D01*
X116896666Y-66994819D02*
X116991904Y-67042438D01*
X116991904Y-67042438D02*
X117039523Y-67090057D01*
X117039523Y-67090057D02*
X117087142Y-67185295D01*
X117087142Y-67185295D02*
X117087142Y-67328152D01*
X117087142Y-67328152D02*
X117039523Y-67423390D01*
X117039523Y-67423390D02*
X116991904Y-67471009D01*
X116991904Y-67471009D02*
X116896666Y-67518628D01*
X116896666Y-67518628D02*
X116515714Y-67518628D01*
X117515714Y-67471009D02*
X117849047Y-67471009D01*
X117991904Y-67994819D02*
X117515714Y-67994819D01*
X117515714Y-67994819D02*
X117515714Y-66994819D01*
X117515714Y-66994819D02*
X117991904Y-66994819D01*
X118420476Y-67994819D02*
X118420476Y-66994819D01*
X118420476Y-66994819D02*
X118658571Y-66994819D01*
X118658571Y-66994819D02*
X118801428Y-67042438D01*
X118801428Y-67042438D02*
X118896666Y-67137676D01*
X118896666Y-67137676D02*
X118944285Y-67232914D01*
X118944285Y-67232914D02*
X118991904Y-67423390D01*
X118991904Y-67423390D02*
X118991904Y-67566247D01*
X118991904Y-67566247D02*
X118944285Y-67756723D01*
X118944285Y-67756723D02*
X118896666Y-67851961D01*
X118896666Y-67851961D02*
X118801428Y-67947200D01*
X118801428Y-67947200D02*
X118658571Y-67994819D01*
X118658571Y-67994819D02*
X118420476Y-67994819D01*
X124083333Y-67042438D02*
X123988095Y-66994819D01*
X123988095Y-66994819D02*
X123845238Y-66994819D01*
X123845238Y-66994819D02*
X123702381Y-67042438D01*
X123702381Y-67042438D02*
X123607143Y-67137676D01*
X123607143Y-67137676D02*
X123559524Y-67232914D01*
X123559524Y-67232914D02*
X123511905Y-67423390D01*
X123511905Y-67423390D02*
X123511905Y-67566247D01*
X123511905Y-67566247D02*
X123559524Y-67756723D01*
X123559524Y-67756723D02*
X123607143Y-67851961D01*
X123607143Y-67851961D02*
X123702381Y-67947200D01*
X123702381Y-67947200D02*
X123845238Y-67994819D01*
X123845238Y-67994819D02*
X123940476Y-67994819D01*
X123940476Y-67994819D02*
X124083333Y-67947200D01*
X124083333Y-67947200D02*
X124130952Y-67899580D01*
X124130952Y-67899580D02*
X124130952Y-67566247D01*
X124130952Y-67566247D02*
X123940476Y-67566247D01*
X125130952Y-67994819D02*
X124797619Y-67518628D01*
X124559524Y-67994819D02*
X124559524Y-66994819D01*
X124559524Y-66994819D02*
X124940476Y-66994819D01*
X124940476Y-66994819D02*
X125035714Y-67042438D01*
X125035714Y-67042438D02*
X125083333Y-67090057D01*
X125083333Y-67090057D02*
X125130952Y-67185295D01*
X125130952Y-67185295D02*
X125130952Y-67328152D01*
X125130952Y-67328152D02*
X125083333Y-67423390D01*
X125083333Y-67423390D02*
X125035714Y-67471009D01*
X125035714Y-67471009D02*
X124940476Y-67518628D01*
X124940476Y-67518628D02*
X124559524Y-67518628D01*
X125559524Y-67471009D02*
X125892857Y-67471009D01*
X126035714Y-67994819D02*
X125559524Y-67994819D01*
X125559524Y-67994819D02*
X125559524Y-66994819D01*
X125559524Y-66994819D02*
X126035714Y-66994819D01*
X126464286Y-67471009D02*
X126797619Y-67471009D01*
X126940476Y-67994819D02*
X126464286Y-67994819D01*
X126464286Y-67994819D02*
X126464286Y-66994819D01*
X126464286Y-66994819D02*
X126940476Y-66994819D01*
X127369048Y-67994819D02*
X127369048Y-66994819D01*
X127369048Y-66994819D02*
X127940476Y-67994819D01*
X127940476Y-67994819D02*
X127940476Y-66994819D01*
X132420476Y-67471009D02*
X132563333Y-67518628D01*
X132563333Y-67518628D02*
X132610952Y-67566247D01*
X132610952Y-67566247D02*
X132658571Y-67661485D01*
X132658571Y-67661485D02*
X132658571Y-67804342D01*
X132658571Y-67804342D02*
X132610952Y-67899580D01*
X132610952Y-67899580D02*
X132563333Y-67947200D01*
X132563333Y-67947200D02*
X132468095Y-67994819D01*
X132468095Y-67994819D02*
X132087143Y-67994819D01*
X132087143Y-67994819D02*
X132087143Y-66994819D01*
X132087143Y-66994819D02*
X132420476Y-66994819D01*
X132420476Y-66994819D02*
X132515714Y-67042438D01*
X132515714Y-67042438D02*
X132563333Y-67090057D01*
X132563333Y-67090057D02*
X132610952Y-67185295D01*
X132610952Y-67185295D02*
X132610952Y-67280533D01*
X132610952Y-67280533D02*
X132563333Y-67375771D01*
X132563333Y-67375771D02*
X132515714Y-67423390D01*
X132515714Y-67423390D02*
X132420476Y-67471009D01*
X132420476Y-67471009D02*
X132087143Y-67471009D01*
X133563333Y-67994819D02*
X133087143Y-67994819D01*
X133087143Y-67994819D02*
X133087143Y-66994819D01*
X133896667Y-66994819D02*
X133896667Y-67804342D01*
X133896667Y-67804342D02*
X133944286Y-67899580D01*
X133944286Y-67899580D02*
X133991905Y-67947200D01*
X133991905Y-67947200D02*
X134087143Y-67994819D01*
X134087143Y-67994819D02*
X134277619Y-67994819D01*
X134277619Y-67994819D02*
X134372857Y-67947200D01*
X134372857Y-67947200D02*
X134420476Y-67899580D01*
X134420476Y-67899580D02*
X134468095Y-67804342D01*
X134468095Y-67804342D02*
X134468095Y-66994819D01*
X134944286Y-67471009D02*
X135277619Y-67471009D01*
X135420476Y-67994819D02*
X134944286Y-67994819D01*
X134944286Y-67994819D02*
X134944286Y-66994819D01*
X134944286Y-66994819D02*
X135420476Y-66994819D01*
X117050057Y-78309523D02*
X117002438Y-78261904D01*
X117002438Y-78261904D02*
X116954819Y-78166666D01*
X116954819Y-78166666D02*
X116954819Y-77928571D01*
X116954819Y-77928571D02*
X117002438Y-77833333D01*
X117002438Y-77833333D02*
X117050057Y-77785714D01*
X117050057Y-77785714D02*
X117145295Y-77738095D01*
X117145295Y-77738095D02*
X117240533Y-77738095D01*
X117240533Y-77738095D02*
X117383390Y-77785714D01*
X117383390Y-77785714D02*
X117954819Y-78357142D01*
X117954819Y-78357142D02*
X117954819Y-77738095D01*
X117050057Y-77357142D02*
X117002438Y-77309523D01*
X117002438Y-77309523D02*
X116954819Y-77214285D01*
X116954819Y-77214285D02*
X116954819Y-76976190D01*
X116954819Y-76976190D02*
X117002438Y-76880952D01*
X117002438Y-76880952D02*
X117050057Y-76833333D01*
X117050057Y-76833333D02*
X117145295Y-76785714D01*
X117145295Y-76785714D02*
X117240533Y-76785714D01*
X117240533Y-76785714D02*
X117383390Y-76833333D01*
X117383390Y-76833333D02*
X117954819Y-77404761D01*
X117954819Y-77404761D02*
X117954819Y-76785714D01*
X116954819Y-76166666D02*
X116954819Y-76071428D01*
X116954819Y-76071428D02*
X117002438Y-75976190D01*
X117002438Y-75976190D02*
X117050057Y-75928571D01*
X117050057Y-75928571D02*
X117145295Y-75880952D01*
X117145295Y-75880952D02*
X117335771Y-75833333D01*
X117335771Y-75833333D02*
X117573866Y-75833333D01*
X117573866Y-75833333D02*
X117764342Y-75880952D01*
X117764342Y-75880952D02*
X117859580Y-75928571D01*
X117859580Y-75928571D02*
X117907200Y-75976190D01*
X117907200Y-75976190D02*
X117954819Y-76071428D01*
X117954819Y-76071428D02*
X117954819Y-76166666D01*
X117954819Y-76166666D02*
X117907200Y-76261904D01*
X117907200Y-76261904D02*
X117859580Y-76309523D01*
X117859580Y-76309523D02*
X117764342Y-76357142D01*
X117764342Y-76357142D02*
X117573866Y-76404761D01*
X117573866Y-76404761D02*
X117335771Y-76404761D01*
X117335771Y-76404761D02*
X117145295Y-76357142D01*
X117145295Y-76357142D02*
X117050057Y-76309523D01*
X117050057Y-76309523D02*
X117002438Y-76261904D01*
X117002438Y-76261904D02*
X116954819Y-76166666D01*
X117954819Y-75452380D02*
X117954819Y-75214285D01*
X117954819Y-75214285D02*
X117764342Y-75214285D01*
X117764342Y-75214285D02*
X117716723Y-75309523D01*
X117716723Y-75309523D02*
X117621485Y-75404761D01*
X117621485Y-75404761D02*
X117478628Y-75452380D01*
X117478628Y-75452380D02*
X117240533Y-75452380D01*
X117240533Y-75452380D02*
X117097676Y-75404761D01*
X117097676Y-75404761D02*
X117002438Y-75309523D01*
X117002438Y-75309523D02*
X116954819Y-75166666D01*
X116954819Y-75166666D02*
X116954819Y-74976190D01*
X116954819Y-74976190D02*
X117002438Y-74833333D01*
X117002438Y-74833333D02*
X117097676Y-74738095D01*
X117097676Y-74738095D02*
X117240533Y-74690476D01*
X117240533Y-74690476D02*
X117478628Y-74690476D01*
X117478628Y-74690476D02*
X117621485Y-74738095D01*
X117621485Y-74738095D02*
X117716723Y-74833333D01*
X117716723Y-74833333D02*
X117764342Y-74928571D01*
X117764342Y-74928571D02*
X117954819Y-74928571D01*
X117954819Y-74928571D02*
X117954819Y-74690476D01*
X124630057Y-78349523D02*
X124582438Y-78301904D01*
X124582438Y-78301904D02*
X124534819Y-78206666D01*
X124534819Y-78206666D02*
X124534819Y-77968571D01*
X124534819Y-77968571D02*
X124582438Y-77873333D01*
X124582438Y-77873333D02*
X124630057Y-77825714D01*
X124630057Y-77825714D02*
X124725295Y-77778095D01*
X124725295Y-77778095D02*
X124820533Y-77778095D01*
X124820533Y-77778095D02*
X124963390Y-77825714D01*
X124963390Y-77825714D02*
X125534819Y-78397142D01*
X125534819Y-78397142D02*
X125534819Y-77778095D01*
X124630057Y-77397142D02*
X124582438Y-77349523D01*
X124582438Y-77349523D02*
X124534819Y-77254285D01*
X124534819Y-77254285D02*
X124534819Y-77016190D01*
X124534819Y-77016190D02*
X124582438Y-76920952D01*
X124582438Y-76920952D02*
X124630057Y-76873333D01*
X124630057Y-76873333D02*
X124725295Y-76825714D01*
X124725295Y-76825714D02*
X124820533Y-76825714D01*
X124820533Y-76825714D02*
X124963390Y-76873333D01*
X124963390Y-76873333D02*
X125534819Y-77444761D01*
X125534819Y-77444761D02*
X125534819Y-76825714D01*
X124534819Y-76206666D02*
X124534819Y-76111428D01*
X124534819Y-76111428D02*
X124582438Y-76016190D01*
X124582438Y-76016190D02*
X124630057Y-75968571D01*
X124630057Y-75968571D02*
X124725295Y-75920952D01*
X124725295Y-75920952D02*
X124915771Y-75873333D01*
X124915771Y-75873333D02*
X125153866Y-75873333D01*
X125153866Y-75873333D02*
X125344342Y-75920952D01*
X125344342Y-75920952D02*
X125439580Y-75968571D01*
X125439580Y-75968571D02*
X125487200Y-76016190D01*
X125487200Y-76016190D02*
X125534819Y-76111428D01*
X125534819Y-76111428D02*
X125534819Y-76206666D01*
X125534819Y-76206666D02*
X125487200Y-76301904D01*
X125487200Y-76301904D02*
X125439580Y-76349523D01*
X125439580Y-76349523D02*
X125344342Y-76397142D01*
X125344342Y-76397142D02*
X125153866Y-76444761D01*
X125153866Y-76444761D02*
X124915771Y-76444761D01*
X124915771Y-76444761D02*
X124725295Y-76397142D01*
X124725295Y-76397142D02*
X124630057Y-76349523D01*
X124630057Y-76349523D02*
X124582438Y-76301904D01*
X124582438Y-76301904D02*
X124534819Y-76206666D01*
X125534819Y-75492380D02*
X125534819Y-75254285D01*
X125534819Y-75254285D02*
X125344342Y-75254285D01*
X125344342Y-75254285D02*
X125296723Y-75349523D01*
X125296723Y-75349523D02*
X125201485Y-75444761D01*
X125201485Y-75444761D02*
X125058628Y-75492380D01*
X125058628Y-75492380D02*
X124820533Y-75492380D01*
X124820533Y-75492380D02*
X124677676Y-75444761D01*
X124677676Y-75444761D02*
X124582438Y-75349523D01*
X124582438Y-75349523D02*
X124534819Y-75206666D01*
X124534819Y-75206666D02*
X124534819Y-75016190D01*
X124534819Y-75016190D02*
X124582438Y-74873333D01*
X124582438Y-74873333D02*
X124677676Y-74778095D01*
X124677676Y-74778095D02*
X124820533Y-74730476D01*
X124820533Y-74730476D02*
X125058628Y-74730476D01*
X125058628Y-74730476D02*
X125201485Y-74778095D01*
X125201485Y-74778095D02*
X125296723Y-74873333D01*
X125296723Y-74873333D02*
X125344342Y-74968571D01*
X125344342Y-74968571D02*
X125534819Y-74968571D01*
X125534819Y-74968571D02*
X125534819Y-74730476D01*
X133534819Y-77738095D02*
X133534819Y-78309523D01*
X133534819Y-78023809D02*
X132534819Y-78023809D01*
X132534819Y-78023809D02*
X132677676Y-78119047D01*
X132677676Y-78119047D02*
X132772914Y-78214285D01*
X132772914Y-78214285D02*
X132820533Y-78309523D01*
X132630057Y-77357142D02*
X132582438Y-77309523D01*
X132582438Y-77309523D02*
X132534819Y-77214285D01*
X132534819Y-77214285D02*
X132534819Y-76976190D01*
X132534819Y-76976190D02*
X132582438Y-76880952D01*
X132582438Y-76880952D02*
X132630057Y-76833333D01*
X132630057Y-76833333D02*
X132725295Y-76785714D01*
X132725295Y-76785714D02*
X132820533Y-76785714D01*
X132820533Y-76785714D02*
X132963390Y-76833333D01*
X132963390Y-76833333D02*
X133534819Y-77404761D01*
X133534819Y-77404761D02*
X133534819Y-76785714D01*
X132534819Y-76166666D02*
X132534819Y-76071428D01*
X132534819Y-76071428D02*
X132582438Y-75976190D01*
X132582438Y-75976190D02*
X132630057Y-75928571D01*
X132630057Y-75928571D02*
X132725295Y-75880952D01*
X132725295Y-75880952D02*
X132915771Y-75833333D01*
X132915771Y-75833333D02*
X133153866Y-75833333D01*
X133153866Y-75833333D02*
X133344342Y-75880952D01*
X133344342Y-75880952D02*
X133439580Y-75928571D01*
X133439580Y-75928571D02*
X133487200Y-75976190D01*
X133487200Y-75976190D02*
X133534819Y-76071428D01*
X133534819Y-76071428D02*
X133534819Y-76166666D01*
X133534819Y-76166666D02*
X133487200Y-76261904D01*
X133487200Y-76261904D02*
X133439580Y-76309523D01*
X133439580Y-76309523D02*
X133344342Y-76357142D01*
X133344342Y-76357142D02*
X133153866Y-76404761D01*
X133153866Y-76404761D02*
X132915771Y-76404761D01*
X132915771Y-76404761D02*
X132725295Y-76357142D01*
X132725295Y-76357142D02*
X132630057Y-76309523D01*
X132630057Y-76309523D02*
X132582438Y-76261904D01*
X132582438Y-76261904D02*
X132534819Y-76166666D01*
X133534819Y-75452380D02*
X133534819Y-75214285D01*
X133534819Y-75214285D02*
X133344342Y-75214285D01*
X133344342Y-75214285D02*
X133296723Y-75309523D01*
X133296723Y-75309523D02*
X133201485Y-75404761D01*
X133201485Y-75404761D02*
X133058628Y-75452380D01*
X133058628Y-75452380D02*
X132820533Y-75452380D01*
X132820533Y-75452380D02*
X132677676Y-75404761D01*
X132677676Y-75404761D02*
X132582438Y-75309523D01*
X132582438Y-75309523D02*
X132534819Y-75166666D01*
X132534819Y-75166666D02*
X132534819Y-74976190D01*
X132534819Y-74976190D02*
X132582438Y-74833333D01*
X132582438Y-74833333D02*
X132677676Y-74738095D01*
X132677676Y-74738095D02*
X132820533Y-74690476D01*
X132820533Y-74690476D02*
X133058628Y-74690476D01*
X133058628Y-74690476D02*
X133201485Y-74738095D01*
X133201485Y-74738095D02*
X133296723Y-74833333D01*
X133296723Y-74833333D02*
X133344342Y-74928571D01*
X133344342Y-74928571D02*
X133534819Y-74928571D01*
X133534819Y-74928571D02*
X133534819Y-74690476D01*
%TO.C,RED*%
D12*
X119401437Y-71580000D02*
G75*
G02*
X116170000Y-71735516I-1671437J1080000D01*
G01*
X118770961Y-71580000D02*
G75*
G02*
X116689039Y-71580000I-1040961J1080000D01*
G01*
X116689039Y-69420000D02*
G75*
G02*
X118770961Y-69420000I1040961J-1080000D01*
G01*
X116170000Y-69264484D02*
G75*
G02*
X119401437Y-69420000I1560000J-1235516D01*
G01*
X116170000Y-71580000D02*
X116170000Y-71736000D01*
X116170000Y-69264000D02*
X116170000Y-69420000D01*
%TO.C,GREEN*%
X127421437Y-71580000D02*
G75*
G02*
X124190000Y-71735516I-1671437J1080000D01*
G01*
X126790961Y-71580000D02*
G75*
G02*
X124709039Y-71580000I-1040961J1080000D01*
G01*
X124709039Y-69420000D02*
G75*
G02*
X126790961Y-69420000I1040961J-1080000D01*
G01*
X124190000Y-69264484D02*
G75*
G02*
X127421437Y-69420000I1560000J-1235516D01*
G01*
X124190000Y-71580000D02*
X124190000Y-71736000D01*
X124190000Y-69264000D02*
X124190000Y-69420000D01*
%TO.C,BLUE*%
X135401437Y-71580000D02*
G75*
G02*
X132170000Y-71735516I-1671437J1080000D01*
G01*
X134770961Y-71580000D02*
G75*
G02*
X132689039Y-71580000I-1040961J1080000D01*
G01*
X132689039Y-69420000D02*
G75*
G02*
X134770961Y-69420000I1040961J-1080000D01*
G01*
X132170000Y-69264484D02*
G75*
G02*
X135401437Y-69420000I1560000J-1235516D01*
G01*
X132170000Y-71580000D02*
X132170000Y-71736000D01*
X132170000Y-69264000D02*
X132170000Y-69420000D01*
%TO.C,220\u03A9*%
X119920000Y-78460000D02*
X119920000Y-74620000D01*
X118080000Y-78460000D02*
X118080000Y-74620000D01*
X127920000Y-78460000D02*
X127920000Y-74620000D01*
X126080000Y-78460000D02*
X126080000Y-74620000D01*
%TO.C,120\u03A9*%
X135920000Y-78420000D02*
X135920000Y-74580000D01*
X134080000Y-78420000D02*
X134080000Y-74580000D01*
%TO.C,SW3*%
X129500000Y-83000000D02*
X129500000Y-87500000D01*
X132000000Y-88750000D02*
X133500000Y-88750000D01*
X133500000Y-81750000D02*
X132000000Y-81750000D01*
X136000000Y-87500000D02*
X136000000Y-83000000D01*
%TO.C,SW1*%
X113500000Y-83000000D02*
X113500000Y-87500000D01*
X116000000Y-88750000D02*
X117500000Y-88750000D01*
X117500000Y-81750000D02*
X116000000Y-81750000D01*
X120000000Y-87500000D02*
X120000000Y-83000000D01*
%TO.C,J1*%
X113370000Y-74120000D02*
X114750000Y-74120000D01*
X113370000Y-75500000D02*
X113370000Y-74120000D01*
X113370000Y-76770000D02*
X113370000Y-79420000D01*
X113370000Y-76770000D02*
X116130000Y-76770000D01*
X113370000Y-79420000D02*
X116130000Y-79420000D01*
X116130000Y-76770000D02*
X116130000Y-79420000D01*
%TO.C,SW2*%
X121500000Y-83000000D02*
X121500000Y-87500000D01*
X124000000Y-88750000D02*
X125500000Y-88750000D01*
X125500000Y-81750000D02*
X124000000Y-81750000D01*
X128000000Y-87500000D02*
X128000000Y-83000000D01*
%TD*%
M02*
